0
SECTION
2
HEADER
9
$INSUNITS
70
4
9
$ACADVER
1
AC1014
9
$HANDSEED
5
FFFF
0
ENDSEC
0
SECTION
2
TABLES
0
TABLE
2
VPORT
5
8
100
AcDbSymbolTable
0
ENDTAB
0
TABLE
2
LTYPE
5
5
100
AcDbSymbolTable
0
LTYPE
5
14
100
AcDbSymbolTableRecord
100
AcDbLinetypeTableRecord
2
BYBLOCK
70
0
0
LTYPE
5
15
100
AcDbSymbolTableRecord
100
AcDbLinetypeTableRecord
2
BYLAYER
70
0
0
LTYPE
5
16
100
AcDbSymbolTableRecord
100
AcDbLinetypeTableRecord
2
DASHED
70
0
3
Dashed __ __ __ __ __ __ __ __ __ __ __ __ __ _
72
65
73
2
40
0.75
49
0.5
74
0
49
-0.25
74
0
0
ENDTAB
0
TABLE
2
LAYER
5
2
100
AcDbSymbolTable
70
2
0
LAYER
5
50
100
AcDbSymbolTableRecord
100
AcDbLayerTableRecord
2
0
70
0
62
7
6
CONTINUOUS
0
ENDTAB
0
TABLE
2
STYLE
5
3
100
AcDbSymbolTable
70
1
0
STYLE
5
11
100
AcDbSymbolTableRecord
100
AcDbTextStyleTableRecord
2
STANDARD
70
0
0
ENDTAB
0
TABLE
2
VIEW
5
6
100
AcDbSymbolTable
70
0
0
ENDTAB
0
TABLE
2
UCS
5
7
100
AcDbSymbolTable
70
0
0
ENDTAB
0
TABLE
2
APPID
5
9
100
AcDbSymbolTable
70
2
0
APPID
5
12
100
AcDbSymbolTableRecord
100
AcDbRegAppTableRecord
2
ACAD
70
0
0
ENDTAB
0
TABLE
2
DIMSTYLE
5
A
100
AcDbSymbolTable
70
1
0
ENDTAB
0
TABLE
2
BLOCK_RECORD
5
1
100
AcDbSymbolTable
70
1
0
BLOCK_RECORD
5
1F
100
AcDbSymbolTableRecord
100
AcDbBlockTableRecord
2
*MODEL_SPACE
0
BLOCK_RECORD
5
1B
100
AcDbSymbolTableRecord
100
AcDbBlockTableRecord
2
*PAPER_SPACE
0
ENDTAB
0
ENDSEC
0
SECTION
2
BLOCKS
0
BLOCK
5
20
100
AcDbEntity
100
AcDbBlockBegin
2
*MODEL_SPACE
0
ENDBLK
5
21
100
AcDbEntity
100
AcDbBlockEnd
0
BLOCK
5
1C
100
AcDbEntity
100
AcDbBlockBegin
2
*PAPER_SPACE
0
ENDBLK
5
1D
100
AcDbEntity
100
AcDbBlockEnd
0
ENDSEC
0
SECTION
2
ENTITIES
0
SPLINE
5
100
100
AcDbEntity
8
0
100
AcDbSpline
70
4
71
5
72
23
73
17
74
0
42
0.000000001
43
0.0000000001
44
0.0000000001
40
-1
40
-1
40
-1
40
-1
40
-1
40
-1
40
-0.93333333333333324
40
-0.86666666666666659
40
-0.79999999999999993
40
-0.73333333333333328
40
-0.66666666666666663
40
-0.59999999999999998
40
-0.53333333333333333
40
-0.46666666666666662
40
-0.39999999999999997
40
-0.33333333333333331
40
-0.26666666666666666
40
-0.21926667406572423
40
-0.21926667406572423
40
-0.21926667406572423
40
-0.21926667406572423
40
-0.21926667406572423
40
-0.21926667406572423
41
1
41
1
41
1
41
1
41
1
41
1
41
1
41
1
41
1
41
1
41
1
41
1
41
1
41
1
41
1
41
1
41
1
10
-98.000000000000398
20
139.20105312726901
30
0
10
-96.177703701042972
20
141.47677992318512
30
0
10
-92.508140175578234
20
145.9735783651837
30
0
10
-86.928870198514716
20
152.55480881126633
30
0
10
-79.309917304359544
20
160.9947954926663
30
0
10
-69.331616194691449
20
170.94800270239173
30
0
10
-58.736663100767601
20
180.26105322834144
30
0
10
-47.424525892185954
20
188.90187991748223
30
0
10
-35.437499934416358
20
196.87013811076434
30
0
10
-23.024499870547054
20
204.21449825652138
30
0
10
-10.765825626910404
20
211.0660613268364
30
0
10
0.51107232432136873
20
217.62186967430091
30
0
10
9.420328154736918
20
223.71819513788878
30
0
10
14.741009766673745
20
228.58577759286925
30
0
10
17.638016432487547
20
232.2128245030751
30
0
10
19.100098560210093
20
234.53020301475675
30
0
10
19.647924178658567
20
235.49775955121441
30
0
0
ARC
5
101
100
AcDbEntity
8
0
100
AcDbCircle
10
-17.400199203977703
20
256.32290189946679
30
0
40
42.500000000000156
210
0
220
0
230
1
100
AcDbArc
50
330.65919828035015
51
360
0
LINE
5
102
100
AcDbEntity
8
0
100
AcDbLine
10
25.099800796022418
20
256.32290189946673
30
0
11
25.099800796022418
21
258.12976332790259
31
0
0
ARC
5
103
100
AcDbEntity
8
0
100
AcDbCircle
10
-17.400199203977543
20
258.12976332790259
30
0
40
42.499999999999964
210
0
220
0
230
1
100
AcDbArc
50
0
51
31.701447473926255
0
LINE
5
104
100
AcDbEntity
8
0
100
AcDbLine
10
18.758708743766505
20
280.46322199481239
30
0
11
14.229543562068951
21
287.79615100180837
31
0
0
SPLINE
5
105
100
AcDbEntity
8
0
100
AcDbSpline
70
4
71
5
72
22
73
16
74
0
42
0.000000001
43
0.0000000001
44
0.0000000001
40
0.28919209067568197
40
0.28919209067568197
40
0.28919209067568197
40
0.28919209067568197
40
0.28919209067568197
40
0.28919209067568197
40
0.33333333333333331
40
0.39999999999999997
40
0.46666666666666662
40
0.53333333333333333
40
0.59999999999999998
40
0.66666666666666663
40
0.73333333333333328
40
0.79999999999999993
40
0.86666666666666659
40
0.93333333333333324
40
1
40
1
40
1
40
1
40
1
40
1
41
1
41
1
41
1
41
1
41
1
41
1
41
1
41
1
41
1
41
1
41
1
41
1
41
1
41
1
41
1
41
1
10
14.229543562068951
20
287.79615100180837
30
0
10
13.366170026760019
20
288.67181564391603
30
0
10
11.055943773862044
20
290.86116926720848
30
0
10
6.7873426350926866
20
294.33637621757691
30
0
10
-0.25097839925230625
20
299.08067406973061
30
0
10
-10.765825626910404
20
305.19346532895634
30
0
10
-23.024499870547054
20
312.04502839928017
30
0
10
-35.437499934416358
20
319.38938854504437
30
0
10
-47.424525892185954
20
327.35764673832807
30
0
10
-58.736663100767601
20
335.99847342746671
30
0
10
-69.331616194691449
20
345.31152395341257
30
0
10
-79.309917304359544
20
355.26473116313616
30
0
10
-86.928870198514716
20
363.70471784453713
30
0
10
-92.508140175578234
20
370.28594829062126
30
0
10
-96.177703701042972
20
374.78274673262013
30
0
10
-98.000000000000398
20
377.05847352853624
30
0
0
LINE
5
106
100
AcDbEntity
8
0
100
AcDbLine
10
-98.000000000000398
20
377.05847352853624
30
0
11
-98.000000000000398
21
139.20105312726901
31
0
0
ENDSEC
0
SECTION
2
OBJECTS
0
DICTIONARY
5
C
100
AcDbDictionary
3
ACAD_GROUP
350
D
3
ACAD_MLINESTYLE
350
17
0
DICTIONARY
5
D
100
AcDbDictionary
0
DICTIONARY
5
1A
330
C
100
AcDbDictionary
0
DICTIONARY
5
17
100
AcDbDictionary
0
ENDSEC
0
EOF
